<svg xmlns="http://www.w3.org/2000/svg" xmlns:xlink="http://www.w3.org/1999/xlink" width="1920" zoomAndPan="magnify" viewBox="0 0 1440 809.999993" height="1080" preserveAspectRatio="xMidYMid meet" version="1.0"><defs><clipPath id="240402d7ee"><path d="M 380 39 L 948.714844 39 L 948.714844 761 L 380 761 Z M 380 39 " clip-rule="nonzero"/></clipPath></defs><path fill="#b0ddda" d="M 886.246094 428.152344 L 943.992188 462.527344 L 943.992188 250.78125 C 943.992188 234.835938 931.066406 221.910156 915.121094 221.910156 C 899.171875 221.910156 886.246094 234.835938 886.246094 250.78125 Z M 886.246094 428.152344 " fill-opacity="1" fill-rule="nonzero"/><path fill="#d4edea" d="M 544.761719 95 C 544.761719 76.664062 553.628906 62.300781 569.558594 53.105469 C 593.472656 39.308594 616.617188 38.671875 640.582031 52.382812 L 924.304688 215.277344 C 940.484375 224.535156 944.472656 232.5625 944.472656 251.144531 C 944.472656 257.183594 944.472656 256.867188 944.472656 251.144531 C 944.472656 239.949219 929.214844 232.039062 919.863281 238.25 C 905.011719 248.109375 885.433594 261.410156 885.433594 281.824219 L 885.433594 713.261719 C 885.433594 729.230469 878.074219 741.28125 864.246094 749.375 C 842.625 762.03125 818.0625 763.242188 798.527344 747.574219 L 543.554688 533.65625 Z M 544.761719 95 " fill-opacity="1" fill-rule="nonzero"/><path fill="#00a279" d="M 595.199219 165.722656 C 589.859375 162.566406 582.972656 164.339844 579.816406 169.679688 C 576.664062 175.015625 578.433594 181.902344 583.773438 185.058594 L 830.804688 331.03125 C 836.144531 334.183594 843.027344 332.414062 846.183594 327.074219 C 849.339844 321.734375 847.566406 314.851562 842.230469 311.695312 Z M 595.199219 165.722656 " fill-opacity="1" fill-rule="nonzero"/><path fill="#00a279" d="M 595.199219 237.910156 C 589.859375 234.753906 582.972656 236.523438 579.816406 241.863281 C 576.664062 247.203125 578.433594 254.085938 583.773438 257.242188 L 830.804688 403.214844 C 836.144531 406.371094 843.027344 404.597656 846.183594 399.261719 C 849.339844 393.921875 847.566406 387.035156 842.230469 383.878906 Z M 595.199219 237.910156 " fill-opacity="1" fill-rule="nonzero"/><path fill="#00a279" d="M 579.816406 314.046875 C 582.972656 308.710938 589.859375 306.9375 595.199219 310.09375 L 842.230469 456.066406 C 847.566406 459.222656 849.339844 466.105469 846.183594 471.445312 C 843.027344 476.785156 836.144531 478.554688 830.804688 475.398438 L 583.773438 329.429688 C 578.433594 326.273438 576.664062 319.386719 579.816406 314.046875 Z M 579.816406 314.046875 " fill-opacity="1" fill-rule="nonzero"/><path fill="#00a279" d="M 595.199219 382.277344 C 589.859375 379.125 582.972656 380.894531 579.816406 386.234375 C 576.664062 391.574219 578.433594 398.457031 583.773438 401.613281 L 830.804688 547.585938 C 836.144531 550.738281 843.027344 548.96875 846.183594 543.628906 C 849.339844 538.292969 847.566406 531.40625 842.230469 528.25 Z M 595.199219 382.277344 " fill-opacity="1" fill-rule="nonzero"/><path fill="#b0ddda" d="M 484.648438 508.933594 C 484.648438 499.519531 494.789062 493.621094 502.925781 498.304688 L 819.851562 680.898438 C 823.648438 683.082031 825.988281 687.136719 825.988281 691.527344 L 825.988281 737.144531 C 825.988281 757.359375 846.574219 753.519531 857.371094 755.125 C 836.007812 761.25 817.464844 761.664062 795.578125 749.074219 L 516.035156 587.898438 C 497.054688 576.980469 486.09375 560.261719 486.09375 538.304688 Z M 484.648438 508.933594 " fill-opacity="1" fill-rule="nonzero"/><path fill="#00a279" d="M 658.929688 496.0625 C 658.316406 492.925781 656.757812 490.042969 654.460938 487.78125 L 430.175781 287.152344 C 420.015625 277.15625 403.542969 277.15625 393.382812 287.152344 C 383.222656 297.148438 383.222656 313.359375 393.382812 323.355469 L 616.839844 523.167969 C 619.644531 525.925781 623.375 527.582031 627.335938 527.824219 L 661.421875 529.890625 C 663.546875 530.019531 665.21875 528.144531 664.816406 526.09375 Z M 658.929688 496.0625 " fill-opacity="1" fill-rule="evenodd"/><path fill="#00a279" d="M 658.929688 496.0625 C 658.316406 492.925781 656.757812 490.042969 654.460938 487.78125 L 430.175781 287.152344 C 420.015625 277.15625 403.542969 277.15625 393.382812 287.152344 C 383.222656 297.148438 383.222656 313.359375 393.382812 323.355469 L 616.839844 523.167969 C 619.644531 525.925781 623.375 527.582031 627.335938 527.824219 L 661.421875 529.890625 C 663.546875 530.019531 665.21875 528.144531 664.816406 526.09375 Z M 658.929688 496.0625 " fill-opacity="1" fill-rule="evenodd"/><path fill="#00a279" d="M 658.929688 496.0625 C 658.316406 492.925781 656.757812 490.042969 654.460938 487.78125 L 430.175781 287.152344 C 420.015625 277.15625 403.542969 277.15625 393.382812 287.152344 C 383.222656 297.148438 383.222656 313.359375 393.382812 323.355469 L 616.839844 523.167969 C 619.644531 525.925781 623.375 527.582031 627.335938 527.824219 L 661.421875 529.890625 C 663.546875 530.019531 665.21875 528.144531 664.816406 526.09375 Z M 658.929688 496.0625 " fill-opacity="1" fill-rule="evenodd"/><path fill="#d4edea" d="M 433.957031 359.644531 C 433.371094 350.132812 436.808594 340.433594 444.265625 333.15625 C 451.414062 326.183594 460.859375 322.796875 470.238281 322.996094 L 460.453125 314.246094 C 452.0625 315.90625 444.0625 319.914062 437.546875 326.265625 C 430.308594 333.324219 426.03125 342.1875 424.710938 351.375 Z M 433.957031 359.644531 " fill-opacity="1" fill-rule="nonzero"/><g clip-path="url(#240402d7ee)"><path fill="#d4edea" d="M 539.761719 460.699219 L 390.175781 326.941406 C 390.117188 326.890625 390.0625 326.835938 390.007812 326.785156 C 377.929688 314.902344 377.929688 295.605469 390.007812 283.722656 C 402.011719 271.914062 421.425781 271.882812 433.46875 283.640625 L 539.761719 378.722656 L 539.761719 93.898438 C 539.761719 75.5625 549.566406 58.617188 565.496094 49.425781 C 589.410156 35.625 618.898438 35.574219 642.863281 49.289062 L 927.46875 212.148438 C 937.257812 217.75 942.53125 224.1875 945.167969 232.519531 C 947.582031 238.21875 948.824219 244.347656 948.824219 250.539062 L 948.824219 462.527344 C 948.824219 464.257812 947.894531 465.855469 946.390625 466.710938 C 944.886719 467.566406 943.039062 467.546875 941.550781 466.664062 L 889.257812 435.535156 L 889.242188 713.765625 C 889.242188 729.738281 880.753906 744.515625 866.929688 752.609375 C 855.789062 759.128906 843.15625 761.761719 830.859375 760.640625 C 818.976562 761.625 807.109375 759.867188 794.492188 752.609375 L 512.699219 590.53125 C 493.71875 579.613281 482.011719 559.335938 482.011719 537.382812 L 482.011719 503.667969 C 482.011719 494.253906 492.152344 488.359375 500.289062 493.039062 L 539.761719 515.742188 Z M 549.386719 387.332031 L 549.386719 93.898438 C 549.386719 79.015625 557.34375 65.242188 570.304688 57.761719 C 591.253906 45.675781 617.089844 45.628906 638.082031 57.640625 L 922.691406 220.503906 C 927.761719 223.402344 930.941406 226.296875 933.042969 229.320312 C 927.671875 229.125 922.0625 230.410156 917.226562 233.621094 L 905.382812 241.484375 C 889.296875 252.164062 879.617188 270.15625 879.617188 289.441406 L 879.617188 713.765625 C 879.617188 726.308594 872.953125 737.929688 862.066406 744.300781 C 856.34375 747.652344 850.15625 749.78125 843.851562 750.714844 C 842.773438 750.390625 841.726562 749.960938 840.71875 749.433594 C 834.53125 746.222656 829.910156 739.492188 829.910156 731.605469 L 829.910156 689.730469 C 829.910156 685.339844 827.570312 681.285156 823.773438 679.101562 L 549.386719 521.277344 L 549.386719 469.304688 L 613.550781 526.683594 C 617.179688 530.210938 621.976562 532.320312 627.042969 532.625 L 661.132812 534.695312 C 666.289062 535.007812 670.570312 530.414062 669.539062 525.167969 L 663.652344 495.140625 C 662.847656 491.039062 660.820312 487.285156 657.835938 484.351562 C 657.820312 484.335938 657.804688 484.320312 657.789062 484.304688 C 657.75 484.269531 657.710938 484.230469 657.671875 484.195312 Z M 892.425781 272.3125 C 891.53125 275.007812 891.074219 277.832031 891.074219 280.671875 L 891.074219 425.417969 L 939.199219 454.0625 L 939.199219 250.785156 C 939.199219 246.671875 938.167969 242.804688 936.351562 239.417969 C 931.753906 238.355469 926.574219 238.96875 922.550781 241.640625 L 910.707031 249.503906 C 902.261719 255.109375 895.945312 263.132812 892.425781 272.3125 Z M 495.488281 501.382812 L 818.972656 687.445312 C 819.773438 687.90625 820.285156 688.773438 820.285156 689.730469 L 820.285156 731.605469 C 820.285156 739.035156 823.121094 745.941406 827.699219 751.203125 C 818.117188 751.648438 808.992188 749.847656 799.289062 744.269531 L 517.496094 582.1875 C 501.511719 572.992188 491.636719 555.90625 491.636719 537.382812 L 491.636719 503.667969 C 491.636719 501.597656 493.820312 500.421875 495.488281 501.382812 Z M 426.800781 290.585938 C 418.515625 282.429688 405.042969 282.429688 396.757812 290.585938 C 388.539062 298.671875 388.511719 311.730469 396.679688 319.847656 L 620.046875 519.582031 C 620.101562 519.632812 620.160156 519.683594 620.214844 519.738281 C 622.183594 521.671875 624.816406 522.847656 627.628906 523.019531 L 659.691406 524.964844 L 654.207031 496.988281 C 653.785156 494.84375 652.730469 492.859375 651.160156 491.285156 L 426.96875 290.742188 C 426.949219 290.722656 426.933594 290.707031 426.914062 290.691406 C 426.875 290.65625 426.839844 290.621094 426.800781 290.585938 Z M 426.800781 290.585938 " fill-opacity="1" fill-rule="evenodd"/></g></svg>